<svg id="Layer_1" data-name="Layer 1" xmlns="http://www.w3.org/2000/svg" viewBox="0 0 47.05 47.05"><defs><style>.cls-1{fill:#06f;}.cls-2{fill:#fff;}</style></defs><circle class="cls-1" cx="23.52" cy="23.52" r="23.52"/><path class="cls-2" d="M19.41,16.93a6,6,0,0,1,4.58-2c2.82,0,4.73,1.72,4.73,4.24a4.62,4.62,0,0,1-3.94,4.5c2.75.46,4.32,2,4.32,4.4,0,2.76-2.29,4.67-5.66,4.67a7,7,0,0,1-4.23-1.21V29.86a6.68,6.68,0,0,0,4.12,1.39c2.46,0,4-1.24,4-3.3s-1.22-3-4.82-3.63V23.1c3.11-.72,4.38-1.88,4.38-3.88a2.69,2.69,0,0,0-3-2.73c-1.57,0-2.93.7-4.47,2.32Z" transform="translate(-0.84 -0.12)"/></svg>