<svg xmlns="http://www.w3.org/2000/svg" width="175.891" height="240.92" viewBox="0 0 175.891 240.92">
  <g id="Group_433" data-name="Group 433" transform="translate(0)">
    <g id="Group_432" data-name="Group 432" transform="translate(0)">
      <g id="Group_430" data-name="Group 430">
        <path id="Path_1491" data-name="Path 1491" d="M42.3,205.285l2.712-18.969a54.171,54.171,0,0,1-9.424-3.364,22.927,22.927,0,0,1-4.924-3.136,9.954,9.954,0,0,1-2.864-3.773,10.306,10.306,0,0,1-.652-4.53,26.9,26.9,0,0,1,1.379-6.954c1.712-5.379,5-11.591,8.894-17.575,7.848-12.045,17.894-23.409,26.06-32.106C71.7,106.15,78.165,99.953,80.15,97.786l.545-.621c6.136-6.076,6.47-15.848,2.273-23.742a22.87,22.87,0,0,0-3.7-5.121l-.03-.03-.03-.03a19.561,19.561,0,0,0-5.045-3.8c-7.909-4.288-18.378-3.227-24.545,4.045l-.636.652a257.519,257.519,0,0,0-16.03,20.878c-7.621,10.954-16.863,25.121-24.227,41.666C5.106,140,1.879,148.922.515,158.907a51.051,51.051,0,0,0,.2,15.757,35.324,35.324,0,0,0,6.545,15.212,34.714,34.714,0,0,0,11.015,9.363,45.952,45.952,0,0,0,10.242,4.015A64.748,64.748,0,0,0,42.3,205.285Z" transform="translate(0 31.893)" fill="#9d0001"/>
        <path id="Path_1492" data-name="Path 1492" d="M102.948,205.285l-2.712-18.969a54.171,54.171,0,0,0,9.424-3.364,22.927,22.927,0,0,0,4.924-3.136,9.954,9.954,0,0,0,2.864-3.773,10.306,10.306,0,0,0,.652-4.53,26.9,26.9,0,0,0-1.379-6.954c-1.712-5.379-5-11.591-8.894-17.575-7.848-12.045-17.894-23.409-26.06-32.106C73.555,106.15,67.085,99.953,65.1,97.786l-.545-.621c-6.136-6.076-6.47-15.848-2.273-23.742a22.87,22.87,0,0,1,3.7-5.121l.03-.03.03-.03a19.562,19.562,0,0,1,5.045-3.8c7.909-4.288,18.378-3.227,24.545,4.045l.636.652A257.52,257.52,0,0,1,112.3,90.014c7.621,10.954,16.863,25.121,24.227,41.666,3.621,8.318,6.848,17.242,8.212,27.227a51.052,51.052,0,0,1-.2,15.757,35.323,35.323,0,0,1-6.545,15.212,34.714,34.714,0,0,1-11.015,9.363,45.952,45.952,0,0,1-10.242,4.015A64.62,64.62,0,0,1,102.948,205.285Z" transform="translate(30.641 31.893)" fill="#9d0001"/>
        <g id="Group_427" data-name="Group 427" transform="translate(47.075)">
          <path id="Path_1493" data-name="Path 1493" d="M114.447,213.579V93.1a41.689,41.689,0,1,0-83.377,0V213.579Z" transform="translate(-31.07 26.478)" fill="#9d0001"/>
          <path id="Path_1494" data-name="Path 1494" d="M90.609,105.8A21.471,21.471,0,0,1,69.14,127.271h-5.53A21.471,21.471,0,0,1,42.14,105.8V21.469A21.461,21.461,0,0,1,63.609,0h5.53A21.471,21.471,0,0,1,90.609,21.469V105.8Z" transform="translate(-25.368)" fill="#9d0001"/>
          <path id="Path_1495" data-name="Path 1495" d="M77.864,44.527a20.946,20.946,0,0,0-29.454-.288V74.345a20.946,20.946,0,0,0,29.454-.288Z" transform="translate(-22.138 19.745)" fill="#7d5032"/>
          <path id="Path_1496" data-name="Path 1496" d="M84.4,59.758V20.9c.015-.212,0-.439,0-.652,0-8.773-8.8-15.894-19.606-15.894C53.991,4.335,45.2,11.456,45.2,20.229c0,.273-.015.545,0,.818v38.7a5.687,5.687,0,0,0,2.3,4.758,8.16,8.16,0,0,0,.818.606c3.712,2.3,7.727,4.606,11.682,6.56a10.339,10.339,0,0,0,1.47.606,10.145,10.145,0,0,0,6.651,0,10.339,10.339,0,0,0,1.47-.606c3.939-1.97,7.97-4.257,11.682-6.56A6.732,6.732,0,0,0,82.1,64.5,5.68,5.68,0,0,0,84.4,59.758Z" transform="translate(-23.794 2.241)" fill="#a56e46"/>
          <path id="Path_1497" data-name="Path 1497" d="M58.424,42.635a.821.821,0,0,1-.864-.788V26.938a.821.821,0,0,1,.864-.788.83.83,0,0,1,.864.788V41.847A.831.831,0,0,1,58.424,42.635Z" transform="translate(-17.424 13.471)" fill="#7d5032"/>
          <path id="Path_1498" data-name="Path 1498" d="M65.024,4.34h-.091C54.13,4.28,45.3,11.355,45.251,20.128c0,.273-.015.545,0,.818L45.13,41.87l3.788.015S42.979,18.87,50.842,14.628C58.1,10.7,57.978,16.855,64.1,17.855v.136c.288,0,.545-.03.818-.045.273.015.515.061.818.061V17.87c6.121-.924,6.076-7.076,13.288-3.076,7.8,4.333,1.621,27.287,1.621,27.287l3.788.015.121-20.924c.015-.273,0-.545,0-.818C84.584,11.567,75.826,4.4,65.024,4.34Z" transform="translate(-23.827 2.236)" fill="#363636"/>
        </g>
        <g id="Group_429" data-name="Group 429" transform="translate(21.667 141.543)">
          <g id="Group_428" data-name="Group 428" transform="translate(9.136)">
            <path id="Path_1499" data-name="Path 1499" d="M134.995,180.616a5.781,5.781,0,0,1-5.773,5.773H26.1a5.781,5.781,0,0,1-5.773-5.773V99.193A5.781,5.781,0,0,1,26.1,93.42h103.12a5.781,5.781,0,0,1,5.773,5.773Z" transform="translate(-20.33 -93.42)"/>
          </g>
          <path id="Path_1500" data-name="Path 1500" d="M142.677,162.1H18.845a4.545,4.545,0,1,1,0-9.091H142.677a4.545,4.545,0,1,1,0,9.091Z" transform="translate(-14.3 -62.724)"/>
        </g>
      </g>
      <g id="Group_431" data-name="Group 431" transform="translate(71.533 164.084)">
        <path id="Path_1501" data-name="Path 1501" d="M47.56,123.635a15.278,15.278,0,0,0,5.576,11.8,5.432,5.432,0,0,1,1.909,4.2v.091a.944.944,0,0,0,.939.939H69.817a.944.944,0,0,0,.939-.939,5.6,5.6,0,0,1,1.955-4.318A15.335,15.335,0,1,0,47.56,123.635m20.3-.424a3.017,3.017,0,0,1,4.273,2.2,3.6,3.6,0,0,1-.894,2.742,5.492,5.492,0,0,1-2.47,1.591,4.469,4.469,0,0,1-2.515.2,2.413,2.413,0,0,1-1.773-1.667c-.409-1.833,1.879-4.273,3.379-5.061m-6.757,11.2c.2-.8.394-1.606.606-2.394a2.025,2.025,0,0,1,.409-.924c0-.848,1.758-.212,1.848.47.121.985.061,2.061.2,3.076a.8.8,0,0,1-.045.53c-.2.333-.788.424-1.3.47a2.13,2.13,0,0,1-1.606-.288.949.949,0,0,1-.106-.939m-7.757-9a3.017,3.017,0,0,1,4.273-2.2c1.515.788,3.8,3.227,3.379,5.061a2.387,2.387,0,0,1-1.773,1.667,4.469,4.469,0,0,1-2.515-.2,5.575,5.575,0,0,1-2.47-1.591,3.6,3.6,0,0,1-.894-2.742" transform="translate(-47.034 -108.297)" fill="#fff"/>
        <path id="Path_1502" data-name="Path 1502" d="M51.352,135.1a2.26,2.26,0,0,1,1.106-.136,12.635,12.635,0,0,1,2.561,1.091c2.454,1.045,4.924,2.091,7.379,3.121,2.682,1.136,5.348,2.273,8.03,3.409a9.885,9.885,0,0,1,3.227,1.591c.682.682.788,1.621,1.848,1.97a2.347,2.347,0,0,0,2.136-.455,4.641,4.641,0,0,0,1.333-1.8,3.3,3.3,0,0,0,.318-2.409,2.653,2.653,0,0,0-2.227-1.545c-.879-.106-1.773.333-2.621.182a12.461,12.461,0,0,1-2.3-1.03c-2.136-.909-4.273-1.8-6.394-2.712-2.636-1.121-5.273-2.227-7.909-3.348-1.015-.424-2.015-.864-3.03-1.288a6.249,6.249,0,0,1-1.712-.773c-.7-.576-.833-1.545-1.773-1.894a2.662,2.662,0,0,0-2.545.606,3.951,3.951,0,0,0-1.545,2.864,3.017,3.017,0,0,0,1.53,2.788c1,.53,1.788.045,2.591-.227" transform="translate(-47.204 -97.66)" fill="#fff"/>
        <path id="Path_1503" data-name="Path 1503" d="M75.269,135.1a2.26,2.26,0,0,0-1.106-.136,12.635,12.635,0,0,0-2.561,1.091c-2.455,1.045-4.924,2.091-7.379,3.121q-4.023,1.7-8.03,3.409a9.885,9.885,0,0,0-3.227,1.591c-.682.682-.8,1.621-1.848,1.97a2.347,2.347,0,0,1-2.136-.455,4.641,4.641,0,0,1-1.333-1.8,3.3,3.3,0,0,1-.318-2.409,2.653,2.653,0,0,1,2.227-1.545c.879-.106,1.773.333,2.621.182a12.46,12.46,0,0,0,2.3-1.03c2.136-.909,4.273-1.8,6.394-2.712,2.636-1.121,5.273-2.227,7.894-3.348,1.015-.424,2.015-.864,3.03-1.288a6.249,6.249,0,0,0,1.712-.773c.7-.576.833-1.545,1.773-1.894a2.662,2.662,0,0,1,2.545.606,3.951,3.951,0,0,1,1.545,2.864,3.017,3.017,0,0,1-1.53,2.788c-.985.53-1.773.045-2.576-.227" transform="translate(-47.213 -97.66)" fill="#fff"/>
      </g>
    </g>
    <line id="Line_28" data-name="Line 28" y1="2.273" x2="15.151" transform="translate(81.787 60.605)" fill="none" stroke="#7d5234" stroke-miterlimit="10" stroke-width="1"/>
  </g>
</svg>
