<svg xmlns="http://www.w3.org/2000/svg" width="258.052" height="250.842" viewBox="0 0 258.052 250.842">
  <g id="Group_336" data-name="Group 336" transform="translate(-370.453 -94.795)">
    <path id="Path_817" data-name="Path 817" d="M418.189,110.158a15.364,15.364,0,1,0,15.365-15.363A15.243,15.243,0,0,0,418.189,110.158Z" transform="translate(-2.372 0)" fill="#e0c690"/>
    <path id="Path_818" data-name="Path 818" d="M439.894,129.321l0,8.079,8.063,5.063-8.063,0,0,9.921-15.99,0,.006-23.062Z" transform="translate(-2.656 -1.716)" fill="#dca982"/>
    <path id="Path_819" data-name="Path 819" d="M432.357,129.081l-8.461.291,0-16.427a12.029,12.029,0,0,1,24.059.006l-.008,28.1-11.577-4.672C433.124,134.992,432.412,132.735,432.357,129.081Z" transform="translate(-2.656 -0.304)" fill="#e6c8aa"/>
    <g id="Group_173" data-name="Group 173" transform="translate(444.025 122.188)">
      <path id="Path_820" data-name="Path 820" d="M448.85,124.12l4.2,8.625-4.674,0" transform="translate(-447.898 -123.645)" fill="#e6c8aa"/>
      <path id="Path_821" data-name="Path 821" d="M453.781,133.2l-5.433,0a.475.475,0,1,1,0-.95h0l3.914,0L448.4,124.3a.476.476,0,0,1,.855-.416Z" transform="translate(-447.873 -123.62)" fill="#dca982"/>
    </g>
    <path id="Path_822" data-name="Path 822" d="M431.889,129.651" transform="translate(-3.053 -1.732)" fill="none" stroke="#efefef" stroke-miterlimit="10" stroke-width="1"/>
    <path id="Path_823" data-name="Path 823" d="M447.159,137.253a.477.477,0,0,1-.4-.219c-.029-.044-1.468-2.119-6.306-2.34a.476.476,0,0,1-.454-.5.469.469,0,0,1,.5-.453c5.413.246,7,2.675,7.066,2.779a.474.474,0,0,1-.149.655A.463.463,0,0,1,447.159,137.253Z" transform="translate(-3.456 -1.936)" fill="#dca982"/>
    <path id="Path_824" data-name="Path 824" d="M447.667,108.889s-1.663,14.256-15.68,14.256l-5.464,5.7-2.814,1.188s-.259-7.421-2.576-10.687c-3.511-4.952,3.252-16.873,3.252-16.873l13.067-4.514,7.127,4.752Z" transform="translate(-2.468 -0.157)" fill="#e0c690"/>
    <g id="Group_174" data-name="Group 174" transform="translate(422.698 120.357)">
      <path id="Path_825" data-name="Path 825" d="M431.921,125.19a3,3,0,0,0-3-3h0a3,3,0,0,0-2.994,2.994l0,4.311a3,3,0,0,0,2.994,3h0a3,3,0,0,0,3-3" transform="translate(-425.455 -121.719)" fill="#e6c8aa"/>
      <path id="Path_826" data-name="Path 826" d="M428.9,132.947a3.474,3.474,0,0,1-3.469-3.472l0-4.312a3.47,3.47,0,1,1,6.939,0,.475.475,0,1,1-.95,0,2.519,2.519,0,1,0-5.039,0l0,4.312a2.519,2.519,0,1,0,5.039,0,.475.475,0,1,1,.95,0A3.475,3.475,0,0,1,428.9,132.947Z" transform="translate(-425.43 -121.694)" fill="#dca982"/>
    </g>
    <path id="Path_827" data-name="Path 827" d="M427.023,129.76a1.957,1.957,0,1,0,1.957-1.956A1.957,1.957,0,0,0,427.023,129.76Z" transform="translate(-2.811 -1.64)" fill="#fff"/>
    <path id="Path_828" data-name="Path 828" d="M420.361,120.1s-26.732,24.739-10.71,30.387S420.361,120.1,420.361,120.1Z" transform="translate(-1.694 -1.258)" fill="#e0c690"/>
    <g id="Group_175" data-name="Group 175" transform="translate(513.463 327.258)">
      <path id="Path_829" data-name="Path 829" d="M520.941,357.026V339.414h7.023l33.242,17.5v.11H538.134l-8.527-4.117-2.283,4.117Z" transform="translate(-520.941 -339.414)" fill="#00148c"/>
    </g>
    <g id="Group_176" data-name="Group 176" transform="translate(456.448 327.258)">
      <path id="Path_830" data-name="Path 830" d="M460.945,357.026V339.414h7.023l33.242,17.5v.11H478.138l-8.527-4.117-2.283,4.117Z" transform="translate(-460.945 -339.414)" fill="#00148c"/>
    </g>
    <path id="Path_831" data-name="Path 831" d="M416.562,244.051a14.287,14.287,0,0,0,9.524,17.818l42.228,12.809L453.08,335.61,480.8,342.54l21.829-87.309-68.247-20.7A14.286,14.286,0,0,0,416.562,244.051Z" transform="translate(-2.261 -6.913)"/>
    <path id="Path_832" data-name="Path 832" d="M388.41,335.36h78.463a1.715,1.715,0,1,0,0-3.43H388.41a1.715,1.715,0,1,0,0,3.43Z" transform="translate(-0.807 -11.785)" fill="#fff"/>
    <path id="Path_833" data-name="Path 833" d="M393.475,223.052a8.145,8.145,0,0,0,9.721,6.183h0a8.146,8.146,0,0,0,6.187-9.717l-12-54a8.145,8.145,0,0,0-9.719-6.184h0a8.148,8.148,0,0,0-6.186,9.718Z" transform="translate(-0.538 -3.198)" fill="#acacac"/>
    <path id="Path_834" data-name="Path 834" d="M475.127,348.909a7.5,7.5,0,1,0,7.5-7.5A7.5,7.5,0,0,0,475.127,348.909Z" transform="translate(-5.202 -12.256)" fill="#fff"/>
    <path id="Path_835" data-name="Path 835" d="M422.338,348.909a7.5,7.5,0,1,0,7.5-7.5A7.5,7.5,0,0,0,422.338,348.909Z" transform="translate(-2.578 -12.256)" fill="#fff"/>
    <path id="Path_836" data-name="Path 836" d="M370.453,348.909a7.5,7.5,0,1,0,7.5-7.5A7.5,7.5,0,0,0,370.453,348.909Z" transform="translate(0 -12.256)" fill="#fff"/>
    <path id="Path_837" data-name="Path 837" d="M430.371,335.848a1.716,1.716,0,0,0,1.714-1.715V265.818a1.714,1.714,0,1,0-3.429,0v68.315A1.716,1.716,0,0,0,430.371,335.848Z" transform="translate(-2.892 -8.414)" fill="#fff"/>
    <path id="Path_838" data-name="Path 838" d="M393.03,268.878a1.716,1.716,0,0,0,1.717-1.714v-30.3a1.756,1.756,0,0,0-.045-.379l-9.433-41.733a1.714,1.714,0,1,0-3.344.757l9.39,41.545v30.106A1.714,1.714,0,0,0,393.03,268.878Z" transform="translate(-0.568 -4.901)" fill="#fff"/>
    <path id="Path_839" data-name="Path 839" d="M396.32,270.181a10.289,10.289,0,0,1,10.29-10.288H451.2a10.29,10.29,0,0,1,10.29,10.288V272.5h-65.1Z" transform="translate(-1.285 -8.205)" fill="#acacac"/>
    <path id="Path_840" data-name="Path 840" d="M449.209,240.045V170.056a19.927,19.927,0,1,0-39.854.129v69.988Z" transform="translate(-1.933 -2.753)" fill="#2297ff"/>
    <path id="Path_841" data-name="Path 841" d="M409.6,245.107c-1.543,6.725,4.475,13.845,13.441,15.9l63.787,14.639,23.484,73.057,23.787-7.647-27.832-86.584-77.636-17.818C419.66,234.6,411.14,238.383,409.6,245.107Z" transform="translate(-1.933 -7.022)"/>
    <path id="Path_842" data-name="Path 842" d="M509.193,214.661l19.324-3.166,11.086,8.868H509.828Z" transform="translate(-6.895 -5.8)" fill="#e6c8aa"/>
    <path id="Path_843" data-name="Path 843" d="M506.365,219.964v-9.386a102.334,102.334,0,0,1-18.452-3.127,82.211,82.211,0,0,1-12.68-4.6,77.4,77.4,0,0,1-12.428-7.183,83.273,83.273,0,0,1-18.674-18.488,113.308,113.308,0,0,1-7.86-12.444L436,164.3a13.36,13.36,0,0,0-11.6-7.263,9.551,9.551,0,0,0-3.071.508l-.017.006-.018.008a6.875,6.875,0,0,0-2.648,1.661A10.285,10.285,0,0,0,415.8,166a14.871,14.871,0,0,0,2.255,8.625l.306.549a91.923,91.923,0,0,0,10.923,14.313A100.884,100.884,0,0,0,440.3,199.807a94.4,94.4,0,0,0,14.124,9.406,90.3,90.3,0,0,0,15.79,6.7,92.416,92.416,0,0,0,15.291,3.432A99.031,99.031,0,0,0,506.365,219.964Z" transform="translate(-2.252 -3.093)" fill="#2297ff"/>
    <path id="Path_844" data-name="Path 844" d="M421.861,152.164v-6.337l19.956,4.751v7.6Z" transform="translate(-2.555 -2.536)" fill="#2297ff"/>
    <path id="Path_845" data-name="Path 845" d="M445.144,166.141,423.592,153.21a.476.476,0,0,1,.489-.815l19.627,11.777-1.963-8.411a.475.475,0,0,1,.926-.215Z" transform="translate(-2.629 -2.859)" fill="#fff"/>
    <path id="Path_846" data-name="Path 846" d="M417,176.261a.475.475,0,0,1-.4-.216c-.073-.113-7.225-11.322-.229-17.406,2.533-2.2,5.107-3.1,7.65-2.649,4.157.725,8.2,4.828,12.716,12.912a.475.475,0,1,1-.83.464c-4.308-7.707-8.25-11.776-12.05-12.44-2.286-.4-4.525.4-6.863,2.43-6.379,5.549.334,16.065.4,16.171a.475.475,0,0,1-.4.734Z" transform="translate(-2.13 -3.036)" fill="#fff"/>
    <path id="Path_847" data-name="Path 847" d="M467.048,216.786a.513.513,0,0,1-.13-.017c-14.513-4.1-34.206-22.1-34.4-22.283a.475.475,0,1,1,.643-.7c.2.18,19.724,18.027,34.019,22.067a.475.475,0,0,1-.129.932Z" transform="translate(-3.077 -4.913)" fill="#fff"/>
    <g id="Group_177" data-name="Group 177" transform="translate(493.653 214.689)">
      <path id="Path_848" data-name="Path 848" d="M514.894,352.349a1.7,1.7,0,0,1-1.714-1.687V231.672a1.716,1.716,0,0,1,3.431,0v118.99A1.7,1.7,0,0,1,514.894,352.349Z" transform="translate(-500.746 -221.407)" fill="#8a8a8a"/>
      <path id="Path_849" data-name="Path 849" d="M609.492,352.355a1.7,1.7,0,0,1-1.715-1.688v-119a1.716,1.716,0,0,1,3.431,0v119A1.7,1.7,0,0,1,609.492,352.355Z" transform="translate(-505.447 -221.407)" fill="#8a8a8a"/>
      <rect id="Rectangle_119" data-name="Rectangle 119" width="120.052" height="13.291" fill="#363636"/>
    </g>
    <g id="Group_185" data-name="Group 185" transform="translate(528.838 95.465)">
      <rect id="Rectangle_120" data-name="Rectangle 120" width="99.667" height="85.582" transform="translate(0 1.722)" fill="#00148c"/>
      <g id="Group_178" data-name="Group 178" transform="translate(32.82 32.408)">
        <path id="Path_850" data-name="Path 850" d="M611.532,221.318H573.373a1.715,1.715,0,1,1,0-3.43h38.159a1.715,1.715,0,1,1,0,3.43Z" transform="translate(-571.657 -133.99)" fill="#00148c"/>
        <path id="Path_851" data-name="Path 851" d="M593.676,215.783a1.715,1.715,0,0,1-1.714-1.715V131.319a1.715,1.715,0,1,1,3.43,0v82.749A1.716,1.716,0,0,1,593.676,215.783Z" transform="translate(-572.666 -129.603)" fill="#00148c"/>
      </g>
      <rect id="Rectangle_121" data-name="Rectangle 121" width="84.401" height="63.868" transform="translate(3.686 14.496)" fill="#9d0001"/>
      <g id="Group_180" data-name="Group 180" transform="translate(7.68 17.689)">
        <path id="Path_852" data-name="Path 852" d="M555.423,114.114H545.2v10.443c0,4.384,5.3,10.531,8.884,11.256l0,.072a3.084,3.084,0,0,1,.666,0l0-.072c3.587-.725,8.883-6.873,8.883-11.256V114.114Z" transform="translate(-545.203 -114.114)" fill="#00148c"/>
        <g id="Group_179" data-name="Group 179" transform="translate(5.11 2.224)">
          <rect id="Rectangle_122" data-name="Rectangle 122" width="8.221" height="8.221" transform="translate(0 6.665)" fill="#fff"/>
          <path id="Path_853" data-name="Path 853" d="M554.725,128.9a3.448,3.448,0,0,1-3.444-3.445V119.9a3.443,3.443,0,0,1,6.887,0v5.554A3.448,3.448,0,0,1,554.725,128.9Zm0-9.776a.778.778,0,0,0-.778.777v5.554a.778.778,0,0,0,1.556,0V119.9A.779.779,0,0,0,554.725,119.12Z" transform="translate(-550.615 -116.454)" fill="#fff"/>
          <path id="Path_854" data-name="Path 854" d="M555.958,127.033a1.111,1.111,0,1,0-1.611.987v1.9h1v-1.9A1.109,1.109,0,0,0,555.958,127.033Z" transform="translate(-550.737 -116.925)" fill="#00148c"/>
        </g>
      </g>
      <path id="Path_855" data-name="Path 855" d="M635.977,183.877a.475.475,0,0,1-.475-.475V95.975a.475.475,0,1,1,.95,0V183.4A.475.475,0,0,1,635.977,183.877Z" transform="translate(-542.01 -95.5)" fill="#fff"/>
      <g id="Group_181" data-name="Group 181" transform="translate(35.118 37.624)">
        <path id="Path_856" data-name="Path 856" d="M618.737,136.042H574.551a.475.475,0,1,1,0-.95h44.185a.475.475,0,1,1,0,.95Z" transform="translate(-574.076 -135.092)" fill="#fff"/>
        <path id="Path_857" data-name="Path 857" d="M618.737,141.723H574.551a.475.475,0,1,1,0-.95h44.185a.475.475,0,1,1,0,.95Z" transform="translate(-574.076 -135.374)" fill="#fff"/>
        <path id="Path_858" data-name="Path 858" d="M618.737,147.405H574.551a.475.475,0,1,1,0-.95h44.185a.475.475,0,1,1,0,.95Z" transform="translate(-574.076 -135.657)" fill="#fff"/>
        <path id="Path_859" data-name="Path 859" d="M618.737,153.087H574.551a.475.475,0,1,1,0-.95h44.185a.475.475,0,1,1,0,.95Z" transform="translate(-574.076 -135.939)" fill="#fff"/>
        <path id="Path_860" data-name="Path 860" d="M618.737,158.768H574.551a.475.475,0,1,1,0-.95h44.185a.475.475,0,1,1,0,.95Z" transform="translate(-574.076 -136.221)" fill="#fff"/>
        <path id="Path_861" data-name="Path 861" d="M602.513,164.45H574.551a.475.475,0,1,1,0-.95h27.962a.475.475,0,1,1,0,.95Z" transform="translate(-574.076 -136.504)" fill="#fff"/>
      </g>
      <path id="Path_862" data-name="Path 862" d="M625.4,110.754H594.445L541,164.2v10.424h28.551l55.85-55.851Z" transform="translate(-537.314 -96.258)" fill="#fff" opacity="0.25"/>
      <g id="Group_182" data-name="Group 182" transform="translate(36.848 23.249)">
        <path id="Path_863" data-name="Path 863" d="M581.18,125.814c-2.294,0-4.024-.879-4.024-2.043s1.729-2.043,4.024-2.043,4.023.878,4.023,2.043S583.473,125.814,581.18,125.814Zm0-3.136c-1.847,0-3.073.658-3.073,1.093s1.226,1.093,3.073,1.093,3.072-.658,3.072-1.093S583.026,122.678,581.18,122.678Z" transform="translate(-575.959 -120.053)" fill="#fff"/>
        <path id="Path_864" data-name="Path 864" d="M578.023,123.087a.475.475,0,0,1-.475-.475.772.772,0,0,0-.219-.605,1.405,1.405,0,0,0-.909-.241.471.471,0,0,1-.52-.426.476.476,0,0,1,.426-.52,2.291,2.291,0,0,1,1.641.482,1.694,1.694,0,0,1,.532,1.31A.475.475,0,0,1,578.023,123.087Z" transform="translate(-575.897 -120.007)" fill="#fff"/>
        <path id="Path_865" data-name="Path 865" d="M581.279,122.241a.474.474,0,0,1-.475-.475.768.768,0,0,0-.22-.6,1.4,1.4,0,0,0-.91-.242.469.469,0,0,1-.52-.425.474.474,0,0,1,.425-.52,2.289,2.289,0,0,1,1.642.481,1.7,1.7,0,0,1,.532,1.31A.475.475,0,0,1,581.279,122.241Z" transform="translate(-576.058 -119.965)" fill="#fff"/>
        <path id="Path_866" data-name="Path 866" d="M584.144,122.991a.476.476,0,0,1-.448-.637.771.771,0,0,0,0-.642,1.355,1.355,0,0,0-.775-.539.478.478,0,0,1-.34-.58.47.47,0,0,1,.576-.341,2.287,2.287,0,0,1,1.378,1.011,1.692,1.692,0,0,1,.055,1.414A.477.477,0,0,1,584.144,122.991Z" transform="translate(-576.228 -119.979)" fill="#fff"/>
        <path id="Path_867" data-name="Path 867" d="M576.98,126.734a1.929,1.929,0,0,1-.2-.009.476.476,0,0,1-.426-.52.481.481,0,0,1,.518-.426,1.337,1.337,0,0,0,.913-.243.773.773,0,0,0,.218-.6.475.475,0,1,1,.95,0,1.7,1.7,0,0,1-.532,1.311A2.187,2.187,0,0,1,576.98,126.734Z" transform="translate(-575.919 -120.188)" fill="#fff"/>
        <path id="Path_868" data-name="Path 868" d="M580.236,127.582a1.81,1.81,0,0,1-.2-.01.475.475,0,0,1,.092-.946h0a1.343,1.343,0,0,0,.912-.243.77.77,0,0,0,.218-.6.475.475,0,0,1,.951,0,1.7,1.7,0,0,1-.532,1.311A2.186,2.186,0,0,1,580.236,127.582Z" transform="translate(-576.081 -120.231)" fill="#fff"/>
        <path id="Path_869" data-name="Path 869" d="M583.5,127.283a.476.476,0,0,1-.119-.936h0a1.347,1.347,0,0,0,.776-.539.77.77,0,0,0,0-.641.475.475,0,0,1,.894-.323,1.7,1.7,0,0,1-.055,1.414,2.289,2.289,0,0,1-1.378,1.01A.46.46,0,0,1,583.5,127.283Z" transform="translate(-576.251 -120.192)" fill="#fff"/>
        <path id="Path_870" data-name="Path 870" d="M579.782,125.7a.465.465,0,0,1-.19-.04.474.474,0,0,1-.245-.625c.677-1.548-.121-2.2-.214-2.269a.478.478,0,0,1-.1-.661.474.474,0,0,1,.655-.114c.539.377,1.343,1.577.534,3.426A.475.475,0,0,1,579.782,125.7Z" transform="translate(-576.048 -120.062)" fill="#fff"/>
      </g>
      <g id="Group_183" data-name="Group 183" transform="translate(52.829 23.249)">
        <path id="Path_871" data-name="Path 871" d="M598,125.814c-2.294,0-4.023-.879-4.023-2.043s1.728-2.043,4.023-2.043,4.023.878,4.023,2.043S600.29,125.814,598,125.814Zm0-3.136c-1.847,0-3.073.658-3.073,1.093s1.225,1.093,3.073,1.093,3.072-.658,3.072-1.093S599.843,122.678,598,122.678Z" transform="translate(-592.775 -120.053)" fill="#fff"/>
        <path id="Path_872" data-name="Path 872" d="M594.839,123.087a.475.475,0,0,1-.475-.475.771.771,0,0,0-.219-.605,1.4,1.4,0,0,0-.908-.241.475.475,0,1,1-.1-.946,2.291,2.291,0,0,1,1.641.482,1.7,1.7,0,0,1,.532,1.31A.475.475,0,0,1,594.839,123.087Z" transform="translate(-592.713 -120.007)" fill="#fff"/>
        <path id="Path_873" data-name="Path 873" d="M598.095,122.241a.475.475,0,0,1-.475-.475.768.768,0,0,0-.219-.6,1.4,1.4,0,0,0-.909-.242.475.475,0,1,1-.095-.945,2.288,2.288,0,0,1,1.641.481,1.7,1.7,0,0,1,.532,1.31A.475.475,0,0,1,598.095,122.241Z" transform="translate(-592.874 -119.965)" fill="#fff"/>
        <path id="Path_874" data-name="Path 874" d="M600.961,122.991a.475.475,0,0,1-.447-.637.778.778,0,0,0,0-.642,1.359,1.359,0,0,0-.776-.539.478.478,0,0,1-.34-.58.471.471,0,0,1,.575-.341,2.289,2.289,0,0,1,1.379,1.011,1.7,1.7,0,0,1,.054,1.414A.476.476,0,0,1,600.961,122.991Z" transform="translate(-593.044 -119.979)" fill="#fff"/>
        <path id="Path_875" data-name="Path 875" d="M593.8,126.734a1.938,1.938,0,0,1-.2-.009.476.476,0,0,1-.426-.52.482.482,0,0,1,.519-.426,1.336,1.336,0,0,0,.912-.243.775.775,0,0,0,.217-.6.475.475,0,1,1,.95,0,1.691,1.691,0,0,1-.532,1.311A2.184,2.184,0,0,1,593.8,126.734Z" transform="translate(-592.735 -120.188)" fill="#fff"/>
        <path id="Path_876" data-name="Path 876" d="M597.052,127.582a1.826,1.826,0,0,1-.2-.01.475.475,0,0,1,.092-.946h0a1.346,1.346,0,0,0,.913-.243.773.773,0,0,0,.217-.6.475.475,0,0,1,.95,0,1.7,1.7,0,0,1-.532,1.311A2.186,2.186,0,0,1,597.052,127.582Z" transform="translate(-592.897 -120.231)" fill="#fff"/>
        <path id="Path_877" data-name="Path 877" d="M600.312,127.283a.476.476,0,0,1-.118-.936h0a1.353,1.353,0,0,0,.775-.539.777.777,0,0,0,0-.641.475.475,0,1,1,.893-.323,1.693,1.693,0,0,1-.055,1.414,2.287,2.287,0,0,1-1.378,1.01A.448.448,0,0,1,600.312,127.283Z" transform="translate(-593.067 -120.192)" fill="#fff"/>
        <path id="Path_878" data-name="Path 878" d="M596.6,125.7a.464.464,0,0,1-.19-.04.473.473,0,0,1-.244-.625c.675-1.548-.121-2.2-.215-2.269a.479.479,0,0,1-.1-.661.473.473,0,0,1,.655-.114c.538.377,1.341,1.577.534,3.426A.476.476,0,0,1,596.6,125.7Z" transform="translate(-592.864 -120.062)" fill="#fff"/>
      </g>
      <g id="Group_184" data-name="Group 184" transform="translate(69.459 23.249)">
        <path id="Path_879" data-name="Path 879" d="M615.5,125.814c-2.294,0-4.023-.879-4.023-2.043s1.728-2.043,4.023-2.043,4.023.878,4.023,2.043S617.79,125.814,615.5,125.814Zm0-3.136c-1.847,0-3.073.658-3.073,1.093s1.225,1.093,3.073,1.093,3.072-.658,3.072-1.093S617.343,122.678,615.5,122.678Z" transform="translate(-610.275 -120.053)" fill="#fff"/>
        <path id="Path_880" data-name="Path 880" d="M612.339,123.087a.475.475,0,0,1-.475-.475.771.771,0,0,0-.22-.605,1.4,1.4,0,0,0-.908-.241.471.471,0,0,1-.521-.426.476.476,0,0,1,.426-.52,2.29,2.29,0,0,1,1.641.482,1.7,1.7,0,0,1,.532,1.31A.475.475,0,0,1,612.339,123.087Z" transform="translate(-610.212 -120.007)" fill="#fff"/>
        <path id="Path_881" data-name="Path 881" d="M615.595,122.241a.475.475,0,0,1-.475-.475.769.769,0,0,0-.22-.6,1.4,1.4,0,0,0-.908-.242.475.475,0,1,1-.1-.945,2.288,2.288,0,0,1,1.641.481,1.7,1.7,0,0,1,.532,1.31A.475.475,0,0,1,615.595,122.241Z" transform="translate(-610.374 -119.965)" fill="#fff"/>
        <path id="Path_882" data-name="Path 882" d="M618.461,122.991a.475.475,0,0,1-.447-.637.779.779,0,0,0,0-.642,1.357,1.357,0,0,0-.776-.539.478.478,0,0,1-.34-.58.471.471,0,0,1,.575-.341,2.288,2.288,0,0,1,1.379,1.011,1.7,1.7,0,0,1,.055,1.414A.476.476,0,0,1,618.461,122.991Z" transform="translate(-610.544 -119.979)" fill="#fff"/>
        <path id="Path_883" data-name="Path 883" d="M611.3,126.734a1.934,1.934,0,0,1-.2-.009.476.476,0,0,1-.426-.52.483.483,0,0,1,.519-.426,1.339,1.339,0,0,0,.912-.243.773.773,0,0,0,.217-.6.475.475,0,1,1,.95,0,1.692,1.692,0,0,1-.532,1.311A2.184,2.184,0,0,1,611.3,126.734Z" transform="translate(-610.236 -120.188)" fill="#fff"/>
        <path id="Path_884" data-name="Path 884" d="M614.552,127.582a1.82,1.82,0,0,1-.2-.01.475.475,0,0,1,.092-.946h0a1.343,1.343,0,0,0,.913-.243.772.772,0,0,0,.217-.6.475.475,0,1,1,.95,0,1.7,1.7,0,0,1-.532,1.311A2.185,2.185,0,0,1,614.552,127.582Z" transform="translate(-610.397 -120.231)" fill="#fff"/>
        <path id="Path_885" data-name="Path 885" d="M617.812,127.283a.476.476,0,0,1-.118-.936h0a1.351,1.351,0,0,0,.775-.539.776.776,0,0,0,0-.641.475.475,0,0,1,.893-.323,1.694,1.694,0,0,1-.055,1.414,2.286,2.286,0,0,1-1.378,1.01A.447.447,0,0,1,617.812,127.283Z" transform="translate(-610.567 -120.192)" fill="#fff"/>
        <path id="Path_886" data-name="Path 886" d="M614.1,125.7a.465.465,0,0,1-.19-.04.475.475,0,0,1-.245-.625c.676-1.548-.121-2.2-.214-2.269a.479.479,0,0,1-.1-.661.473.473,0,0,1,.655-.114c.538.377,1.342,1.577.534,3.426A.476.476,0,0,1,614.1,125.7Z" transform="translate(-610.364 -120.062)" fill="#fff"/>
      </g>
      <rect id="Rectangle_123" data-name="Rectangle 123" width="4.752" height="15.68" transform="translate(13.187 43.234)" fill="#fff"/>
      <rect id="Rectangle_124" data-name="Rectangle 124" width="4.752" height="4.752" transform="translate(13.187 61.052)" fill="#fff"/>
    </g>
  </g>
</svg>
