<svg xmlns="http://www.w3.org/2000/svg" width="305.773" height="275.663" viewBox="0 0 305.773 275.663">
  <g id="Group_358" data-name="Group 358" transform="translate(0 -0.01)">
    <g id="Group_361" data-name="Group 361" transform="translate(0 79.93)">
      <path id="Path_1403" data-name="Path 1403" d="M37.909,240.9H17l7.782,46.2h5.344Z" transform="translate(-0.806 -91.357)" fill="#dfdfdf"/>
      <path id="Path_1404" data-name="Path 1404" d="M303.909,240.9H283l7.782,46.2h5.344Z" transform="translate(-13.424 -91.357)" fill="#dfdfdf"/>
      <path id="Path_1405" data-name="Path 1405" d="M305.773,234.149V129.8a13.5,13.5,0,0,0-13.5-13.5h-5.553V97.408a13.5,13.5,0,0,0-13.5-13.5H32.549a13.493,13.493,0,0,0-13.5,13.5V116.3H13.5A13.493,13.493,0,0,0,0,129.8V234.149" transform="translate(0 -83.91)" fill="#acacac"/>
      <g id="Group_358-2" data-name="Group 358" transform="translate(2.858 91.446)">
        <path id="Path_1406" data-name="Path 1406" d="M3,220.7V193.408a13.5,13.5,0,0,1,13.5-13.5H288.6a13.5,13.5,0,0,1,13.5,13.5V220.7" transform="translate(-3 -179.91)" fill="none" stroke="#fff" stroke-linecap="round" stroke-miterlimit="10" stroke-width="1"/>
      </g>
      <g id="Group_359" data-name="Group 359" transform="translate(278.378 32.378)">
        <path id="Path_1407" data-name="Path 1407" d="M306.357,117.9h-.619a13.5,13.5,0,0,0-13.5,13.5v31.273" transform="translate(-292.24 -117.9)" fill="none" stroke="#fff" stroke-linecap="round" stroke-miterlimit="10" stroke-width="1.5"/>
      </g>
      <g id="Group_360" data-name="Group 360" transform="translate(15.47 32.378)">
        <path id="Path_1408" data-name="Path 1408" d="M16.24,117.9h.619a13.5,13.5,0,0,1,13.5,13.5v31.273" transform="translate(-16.24 -117.9)" fill="none" stroke="#fff" stroke-linecap="round" stroke-miterlimit="10" stroke-width="1.5"/>
      </g>
    </g>
    <path id="Path_1409" data-name="Path 1409" d="M175.471,146.016V75.869A19.975,19.975,0,1,0,135.52,76v70.156Z" transform="translate(-6.428 -2.654)" fill="#2297ff"/>
    <g id="Group_362" data-name="Group 362" transform="translate(130.997 2.325)">
      <path id="Path_1410" data-name="Path 1410" d="M172.721,36.732a13.5,13.5,0,0,1-13.5,13.5H151.3a13.5,13.5,0,0,1-13.5-13.5V15.938a13.5,13.5,0,0,1,13.5-13.5h7.925a13.5,13.5,0,0,1,13.5,13.5Z" transform="translate(-137.533 -2.44)" fill="#363636"/>
      <path id="Path_1411" data-name="Path 1411" d="M165.42,32.681a3,3,0,0,1,3-3h0a3,3,0,0,1,3,3v4.325a3,3,0,0,1-3,3h0a3,3,0,0,1-3-3" transform="translate(-138.843 -3.732)" fill="#e2b185" stroke="#bb7d4a" stroke-linecap="round" stroke-miterlimit="10" stroke-width="1"/>
      <path id="Path_1412" data-name="Path 1412" d="M170.435,37.252a1.962,1.962,0,1,1-1.962-1.962A1.959,1.959,0,0,1,170.435,37.252Z" transform="translate(-138.895 -3.998)" fill="#fff"/>
      <path id="Path_1413" data-name="Path 1413" d="M146.921,32.681a3,3,0,0,0-3-3h0a3,3,0,0,0-3,3v4.325a3,3,0,0,0,3,3h0a3,3,0,0,0,3-3" transform="translate(-137.681 -3.732)" fill="#e2b185" stroke="#bb7d4a" stroke-linecap="round" stroke-miterlimit="10" stroke-width="1"/>
      <path id="Path_1414" data-name="Path 1414" d="M142.01,37.252a1.962,1.962,0,1,0,1.962-1.962A1.959,1.959,0,0,0,142.01,37.252Z" transform="translate(-137.733 -3.998)" fill="#fff"/>
      <path id="Path_1415" data-name="Path 1415" d="M167.746,51.036a.475.475,0,0,1-.2-.9c3.753-1.772,5.83-6.039,5.83-12.021,0-2.924-.067-5.963-.124-8.9s-.124-5.982-.124-8.916a.476.476,0,1,1,.953,0c0,2.924.067,5.963.124,8.9s.124,5.982.124,8.916c0,6.373-2.267,10.945-6.373,12.879A.6.6,0,0,1,167.746,51.036Z" transform="translate(-138.931 -3.264)" fill="#363636"/>
      <path id="Path_1416" data-name="Path 1416" d="M144.093,51.036a.387.387,0,0,1-.2-.048c-4.106-1.934-6.373-6.506-6.373-12.879,0-2.934.067-5.973.124-8.916s.124-5.973.124-8.9a.472.472,0,0,1,.476-.476h0a.472.472,0,0,1,.476.476c0,2.934-.067,5.973-.124,8.916s-.124,5.973-.124,8.9c0,5.982,2.067,10.25,5.83,12.021a.472.472,0,0,1,.229.629A.493.493,0,0,1,144.093,51.036Z" transform="translate(-137.52 -3.264)" fill="#363636"/>
      <path id="Path_1417" data-name="Path 1417" d="M163.533,60.288s-1.067,3.858-7.5,3.858c-5.954,0-7.706-3.858-7.706-3.858V36.95h15.2V60.288Z" transform="translate(-138.033 -4.077)" fill="#be8c69"/>
      <path id="Path_1418" data-name="Path 1418" d="M166.544,40.1V18.722c.01-.133,0-.276,0-.41,0-5.525-4.9-10-10.907-10s-10.9,4.477-10.9,10c0,.171-.01.343,0,.514V40.088a3.81,3.81,0,0,0,1.276,2.991c.143.133.3.257.457.381,2.058,1.448,4.306,2.9,6.5,4.125a5.773,5.773,0,0,0,.819.381,5.021,5.021,0,0,0,3.7,0,5.773,5.773,0,0,0,.819-.381c2.191-1.238,4.429-2.677,6.5-4.125a4.4,4.4,0,0,0,.457-.381A3.755,3.755,0,0,0,166.544,40.1Z" transform="translate(-137.862 -2.718)" fill="#e2b185"/>
      <line id="Line_17" data-name="Line 17" y2="8.516" transform="translate(17.708 27.605)" fill="none" stroke="#bb7d4a" stroke-linecap="round" stroke-miterlimit="10" stroke-width="1"/>
      <path id="Path_1419" data-name="Path 1419" d="M166.29,31H144.7L142.79,18.93,148.82,7.5,162.48,5.28l6.668,8.887Z" transform="translate(-137.77 -2.575)" fill="#363636"/>
      <path id="Path_1420" data-name="Path 1420" d="M149.25,40.44s1.191,4.287,6.668,4.287" transform="translate(-138.076 -4.243)" fill="none" stroke="#bb7d4a" stroke-linecap="round" stroke-miterlimit="10" stroke-width="1"/>
    </g>
    <path id="Path_1421" data-name="Path 1421" d="M143.654,69.164c-3.42-2.048-7.02-2.324-8.04-.619L103.18,122.6l12.374,7.42,32.435-54.058C149.008,74.26,147.074,71.212,143.654,69.164Z" transform="translate(-4.894 -3.198)" fill="#2297ff"/>
    <path id="Path_1422" data-name="Path 1422" d="M167.781,70.164c3.42-2.048,7.02-2.324,8.04-.619L208.255,123.6l-12.374,7.42L163.446,76.965C162.427,75.26,164.361,72.212,167.781,70.164Z" transform="translate(-7.74 -3.245)" fill="#2297ff"/>
    <g id="Group_363" data-name="Group 363" transform="translate(110.221 81.94)">
      <path id="Path_1423" data-name="Path 1423" d="M190.83,140.831a3.628,3.628,0,0,1-3.629,3.629H122.369a3.634,3.634,0,0,1-3.629-3.629V89.649a3.634,3.634,0,0,1,3.629-3.629H187.2a3.634,3.634,0,0,1,3.629,3.629Z" transform="translate(-115.854 -86.02)" fill="#0014a0"/>
      <line id="Line_18" data-name="Line 18" x2="77.853" transform="translate(0 59.612)" fill="none" stroke="#00148c" stroke-linecap="round" stroke-miterlimit="10" stroke-width="6"/>
      <path id="Path_1424" data-name="Path 1424" d="M152.07,118.362a4.382,4.382,0,1,0,4.382-4.382A4.382,4.382,0,0,0,152.07,118.362Z" transform="translate(-117.435 -87.346)" fill="#fff"/>
    </g>
    <g id="Group_364" data-name="Group 364" transform="translate(53.122 110.435)">
      <path id="Path_1425" data-name="Path 1425" d="M150.407,150.175c-7.268-3.944-35.054-17.422-64.05-31.235L70.182,155c36.674,9.9,75.1,19.937,81.111,20.9a21.62,21.62,0,0,0,3.477.267,15.3,15.3,0,0,0,8.287-2.181,11.606,11.606,0,0,0,5-6.268l.01-.038.019-.038a11.637,11.637,0,0,0-.1-8.021,15.263,15.263,0,0,0-5.191-6.82,21.092,21.092,0,0,0-2.905-1.934c-5.334-2.934-41.808-18.642-76.815-33.387a19.677,19.677,0,0,0-18.413,34.6l2.248,1.467c26.872,17.594,52.839,34.321,59.983,38.474Z" transform="translate(-55.767 -115.934)" fill="#363636"/>
      <path id="Path_1426" data-name="Path 1426" d="M179.87,191.647c7.259-4.106,34.311-21.118,61.679-38.6l2.191-1.4a18.976,18.976,0,0,0-17.775-33.4c-33.025,14.336-66.508,29.187-71.528,32.025a19.986,19.986,0,0,0-2.81,1.915,14.911,14.911,0,0,0-4.991,6.706,11.368,11.368,0,0,0-.01,7.821l.019.038.01.038a11.386,11.386,0,0,0,4.944,6.058A14.926,14.926,0,0,0,159.7,174.9a20.653,20.653,0,0,0,3.391-.3c5.677-.972,41.017-10.593,75.691-20.318L223.2,119.5c-29.482,13.612-58.392,27.215-65.775,31.111Z" transform="translate(-60.044 -115.969)" fill="#363636"/>
    </g>
    <path id="Path_1427" data-name="Path 1427" d="M146.14,167.58l21.118,4.287,4.763,8.1h-33.1Z" transform="translate(-6.59 -7.949)" fill="#363636"/>
    <g id="Group_365" data-name="Group 365" transform="translate(26.062 0.01)">
      <path id="Path_1428" data-name="Path 1428" d="M81.7,79.555H52.166S48.117,58.5,55.6,43.939s6.277-19.432,6.277-25.1,2.629-31.568,6.068-9.716c0,0,3.039-20.032,5.668.41,0,0,3.439,1.819,7.087,4.248s4.448,2.629,4.448,5.668S73.208,23.7,74.017,34.423,80.695,51.826,81.7,79.555Z" transform="translate(-28.485 -0.026)" fill="#cecece"/>
      <path id="Path_1429" data-name="Path 1429" d="M52.451,79.54c-6.9,0-12.069-2.191-15.374-6.525-8.1-10.6-2.381-31.473.7-42.684C41.925,15.146,28.865,4.792,28.3,4.354A2.425,2.425,0,1,1,31.266.515c.667.514,16.213,12.745,11.183,31.1C39.8,41.275,34.3,61.374,40.934,70.071c2.372,3.105,6.135,4.62,11.517,4.62a2.424,2.424,0,1,1,0,4.849Z" transform="translate(-27.36 -0.01)" fill="#cecece"/>
    </g>
  </g>
</svg>
